<svg width="800" height="800" viewBox="0 0 800 800" fill="none" xmlns="http://www.w3.org/2000/svg">
<g clip-path="url(#clip0_274_276)">
<path d="M666.27 30.561H593.14C587.257 30.561 582.49 35.3266 582.492 41.2095C582.493 54.5626 582.49 85.8111 582.49 159.716C582.49 195.002 553.887 223.611 518.601 223.611H281.401C246.115 223.611 217.511 194.999 217.511 159.716C217.511 85.8064 217.507 54.5579 217.51 41.2079C217.511 35.3251 212.744 30.5594 206.861 30.5594H133.73C116.088 30.5594 101.785 44.8626 101.785 62.5048V768.056C101.785 785.698 116.088 800.002 133.73 800.002H666.269C683.911 800.002 698.214 785.698 698.214 768.056V62.5048C698.214 44.8626 683.911 30.561 666.27 30.561ZM370.513 670.839C370.513 688.481 356.21 702.784 338.568 702.784H236.344C218.702 702.784 204.399 688.481 204.399 670.839V568.615C204.399 550.973 218.702 536.67 236.344 536.67H338.568C356.21 536.67 370.513 550.973 370.513 568.615V670.839ZM370.513 440.837C370.513 458.479 356.21 472.782 338.568 472.782H236.344C218.702 472.782 204.399 458.479 204.399 440.837V338.613C204.399 320.971 218.702 306.668 236.344 306.668H338.568C356.21 306.668 370.513 320.971 370.513 338.613V440.837ZM563.654 651.672H448.654C431.012 651.672 416.709 637.368 416.709 619.726C416.709 602.084 431.012 587.781 448.654 587.781H563.654C581.296 587.781 595.6 602.084 595.6 619.726C595.6 637.368 581.296 651.672 563.654 651.672ZM563.654 421.67H448.654C431.012 421.67 416.709 407.366 416.709 389.724C416.709 372.082 431.012 357.779 448.654 357.779H563.654C581.296 357.779 595.6 372.082 595.6 389.724C595.6 407.368 581.296 421.67 563.654 421.67Z" fill="black"/>
<path d="M281.399 191.668H518.599C536.242 191.668 550.545 177.364 550.545 159.722V31.9454C550.545 14.3032 536.242 0 518.599 0H281.399C263.757 0 249.454 14.3032 249.454 31.9454V159.724C249.455 177.366 263.758 191.668 281.399 191.668Z" fill="black"/>
</g>
<defs>
<clipPath id="clip0_274_276">
<rect width="800" height="800" fill="white"/>
</clipPath>
</defs>
</svg>
