<svg width="30" height="30" viewBox="0 0 30 30" fill="none" xmlns="http://www.w3.org/2000/svg">
<path d="M22.425 19.425C22.4625 19.125 22.475 18.8125 22.475 18.4875V13.4875C22.475 9.50001 20.475 7.5 16.4875 7.5H8.48751C8.16251 7.5 7.85001 7.51251 7.55001 7.55001M22.425 19.425C22.1375 22.8 20.15 24.475 16.4875 24.475H15.9875C15.675 24.475 15.375 24.625 15.1875 24.875L13.6875 26.875C13.025 27.7625 11.95 27.7625 11.2875 26.875L9.78748 24.875C9.62498 24.6625 9.2625 24.475 8.9875 24.475H8.48751C4.50001 24.475 2.5 23.4875 2.5 18.4875V13.4875C2.5 9.82501 4.18751 7.83751 7.55001 7.55001M22.425 19.425C25.7875 19.1375 27.475 17.1625 27.475 13.4875V8.48751C27.475 4.50001 25.475 2.5 21.4875 2.5H13.4875C9.82501 2.5 7.83751 4.18751 7.55001 7.55001M16.8694 16.5625H16.8806M12.4944 16.5625H12.5056M8.11938 16.5625H8.13062" stroke="#292D32" stroke-width="1.5" stroke-linecap="round" stroke-linejoin="round"/>
</svg>
